<?xml version="1.0"?>
<svg xmlns="http://www.w3.org/2000/svg" viewBox="0 0 50 50">
    <path style="text-indent:0;text-align:start;line-height:normal;text-transform:none;block-progression:tb;-inkscape-font-specification:Sans" d="M 22.5 2 C 19.474279 2 17 4.4742784 17 7.5 C 17 9.2173017 17.788713 10.770781 19.03125 11.78125 C 18.676005 11.739257 18.321055 11.725456 17.96875 11.75 C 15.808671 11.900488 13.825807 13.310696 13.0625 15.46875 C 13.0594 15.47745 13.0655 15.4913 13.0625 15.5 C 13.0607 15.5053 13.03307 15.4947 13.03125 15.5 L 9.9375 23.96875 C 9.3682789 25.526652 9.5015731 27.174721 10.15625 28.59375 L 10.09375 28.59375 L 8.875 36.96875 L 3.625 40.40625 C 2.0555341 41.436944 1.5506397 43.517161 2.46875 45.15625 C 3.4623251 46.931474 5.7703771 47.539272 7.5 46.46875 L 14.53125 42.09375 C 15.204971 41.676613 15.690756 41.01993 15.875 40.25 L 17.34375 34.125 L 20.40625 36.03125 L 19.375 44.03125 C 19.101598 46.112994 20.743224 48 22.84375 48 C 24.562893 48 26.045171 46.729902 26.3125 45.03125 L 27.96875 34.4375 C 28.200496 32.963117 27.609684 31.477688 26.40625 30.59375 L 21.25 26.8125 L 22.59375 22.5 L 25.125 24.28125 C 26.029164 24.920452 27.229821 25.03021 28.21875 24.53125 L 30.375 23.4375 L 35.53125 45.46875 C 35.942265 47.228409 37.739933 48.318788 39.5 47.90625 L 45.46875 46.53125 C 47.228409 46.120235 48.318788 44.322567 47.90625 42.5625 L 41.84375 16.53125 C 41.535489 15.211506 40.451582 14.283143 39.1875 14.0625 C 38.766139 13.98895 38.315017 13.99062 37.875 14.09375 L 31.90625 15.46875 C 31.16346 15.641939 30.539712 16.069216 30.09375 16.625 L 27.34375 17.9375 L 22.28125 13.375 C 22.27145 13.3651 22.25989 13.35356 22.25 13.34375 C 22.108292 13.203107 21.970561 13.064593 21.8125 12.9375 C 22.039167 12.966247 22.265837 13 22.5 13 C 25.525721 13 28 10.525722 28 7.5 C 28 4.4742784 25.525721 2 22.5 2 z M 22.5 4 C 24.444841 4 26 5.5551588 26 7.5 C 26 9.4448412 24.444841 11 22.5 11 C 20.555159 11 19 9.4448412 19 7.5 C 19 5.5551588 20.555159 4 22.5 4 z M 18.09375 13.71875 C 18.559666 13.68802 19.028267 13.74356 19.5 13.90625 C 20.026109 14.087508 20.488928 14.39276 20.875 14.78125 L 20.875 14.8125 L 20.90625 14.8125 L 26.5 19.875 L 27 20.3125 L 27.59375 20.03125 L 31.65625 18.0625 C 32.213221 17.794983 32.852083 18.03935 33.125 18.59375 C 33.398567 19.148915 33.17702 19.784079 32.625 20.0625 L 27.3125 22.71875 C 26.981429 22.88579 26.585086 22.871048 26.28125 22.65625 L 22.625 20.0625 L 21.5 19.28125 L 21.09375 20.59375 L 19.125 26.875 L 18.90625 27.5625 L 19.46875 28 L 25.21875 32.1875 C 25.823316 32.631562 26.116254 33.385383 26 34.125 L 24.34375 44.71875 C 24.227079 45.460098 23.592607 46 22.84375 46 C 21.916276 46 21.254402 45.230756 21.375 44.3125 L 22.5 35.65625 L 22.59375 35.03125 L 22.03125 34.6875 L 15.78125 30.78125 L 15.75 30.78125 L 15.75 30.75 L 13.78125 29.71875 C 11.956412 28.749381 11.134411 26.597642 11.84375 24.65625 L 14.9375 16.15625 C 15.425573 14.741015 16.696001 13.810946 18.09375 13.71875 z M 38.59375 16 C 39.195317 15.980708 39.730638 16.381952 39.875 17 L 40.78125 20.84375 L 39.09375 21.21875 L 39.53125 23.1875 L 41.25 22.8125 L 42.1875 26.84375 L 40.53125 27.21875 L 41 29.15625 L 42.625 28.78125 L 43.59375 32.9375 L 41.875 33.34375 L 42.34375 35.28125 L 44.0625 34.90625 L 45 38.9375 L 43.34375 39.3125 L 43.78125 41.25 L 45.46875 40.875 L 45.96875 43.03125 C 46.134212 43.737183 45.706341 44.397515 45 44.5625 L 42.96875 45.03125 L 36.28125 16.53125 L 38.34375 16.03125 C 38.431992 16.010567 38.507812 16.002756 38.59375 16 z M 35.0625 20.09375 L 41 45.5 L 39.03125 45.96875 C 38.325317 46.134212 37.664985 45.706341 37.5 45 L 37 42.9375 L 38.5 42.59375 L 38.0625 40.625 L 36.5625 40.96875 L 35.625 36.96875 L 37.0625 36.625 L 36.625 34.6875 L 35.15625 35.03125 L 34.1875 30.84375 L 35.71875 30.5 L 35.28125 28.53125 L 33.71875 28.875 L 32.78125 24.84375 L 34.25 24.5 L 33.8125 22.5625 L 32.3125 22.90625 L 32.21875 22.5 L 33.53125 21.84375 C 34.277149 21.467545 34.810228 20.836405 35.0625 20.09375 z M 11.78125 30.75 C 12.104416 31.019965 12.459781 31.264782 12.84375 31.46875 L 14.75 32.5 L 14.78125 32.53125 L 15.5625 33.03125 L 13.9375 39.78125 C 13.87574 40.03932 13.724279 40.267387 13.5 40.40625 L 6.4375 44.75 C 5.6531229 45.235478 4.6691749 44.992276 4.21875 44.1875 C 3.8048603 43.448589 4.0102159 42.527806 4.71875 42.0625 L 10.34375 38.375 L 10.71875 38.125 L 10.78125 37.6875 L 11.78125 30.75 z"/>
</svg>
